<svg width="875" height="190" viewBox="0 0 875 190" fill="none" xmlns="http://www.w3.org/2000/svg">
<path d="M78.5328 0L157.498 67.8571H0.442139L78.5328 0Z" fill="#A7C7E7"/>
<path d="M0.442139 67.8571H157.498V190H0.442139V67.8571Z" fill="#A7C7E7"/>
<path d="M128.505 0L207.47 67.8571H50.4144L128.505 0Z" fill="#0B1F3B"/>
<path d="M50.4144 67.8571H207.47V190H50.4144V67.8571Z" fill="#0B1F3B"/>
<path d="M178.477 0L257.442 67.8571H100.387L178.477 0Z" fill="#4884C7"/>
<path d="M100.387 67.8571H257.442V190H100.387V67.8571Z" fill="#4884C7"/>
<path d="M283.419 157.321V84.568H296.699V157.321H283.419Z" fill="#0B1F3B"/>
<path d="M310.691 157.321V84.568H321.042L361.076 138.474L355.705 139.548V84.568H368.985V157.321H358.537L319.089 103.025L323.971 101.951V157.321H310.691Z" fill="#0B1F3B"/>
<path d="M402.498 157.321L377.11 84.568H391.562L411.481 144.822H408.65L428.569 84.568H443.02L417.73 157.321H402.498Z" fill="#0B1F3B"/>
<path d="M451.151 157.321V84.568H499.485V96.2867H464.431V114.939H497.532V126.658H464.431V145.603H499.485V157.321H451.151Z" fill="#0B1F3B"/>
<path d="M535.196 158.493C530.574 158.493 526.278 157.647 522.307 155.954C518.401 154.262 515.016 151.918 512.152 148.923C509.353 145.863 507.302 142.315 506.001 138.279L517.034 133.493C518.792 137.66 521.331 140.948 524.651 143.357C527.971 145.7 531.714 146.872 535.88 146.872C538.223 146.872 540.241 146.514 541.934 145.798C543.691 145.017 545.026 143.975 545.937 142.673C546.914 141.371 547.402 139.809 547.402 137.986C547.402 135.837 546.751 134.079 545.449 132.712C544.212 131.28 542.324 130.173 539.786 129.392L525.822 124.9C520.159 123.142 515.895 120.505 513.031 116.99C510.167 113.474 508.735 109.34 508.735 104.587C508.735 100.421 509.744 96.7424 511.762 93.5523C513.845 90.3622 516.709 87.8883 520.354 86.1305C524.065 84.3076 528.296 83.3961 533.048 83.3961C537.41 83.3961 541.413 84.1774 545.058 85.7399C548.704 87.2372 551.828 89.3531 554.432 92.0875C557.101 94.7567 559.087 97.9143 560.389 101.56L549.452 106.443C548.02 102.797 545.872 99.9976 543.008 98.0445C540.144 96.0263 536.824 95.0172 533.048 95.0172C530.835 95.0172 528.882 95.4078 527.189 96.189C525.497 96.9052 524.162 97.9468 523.186 99.314C522.275 100.616 521.819 102.179 521.819 104.001C521.819 106.02 522.47 107.81 523.772 109.373C525.074 110.87 527.059 112.042 529.728 112.888L543.106 117.087C548.899 118.975 553.228 121.58 556.092 124.9C559.022 128.22 560.486 132.322 560.486 137.204C560.486 141.371 559.412 145.049 557.264 148.24C555.116 151.43 552.154 153.936 548.378 155.759C544.603 157.582 540.209 158.493 535.196 158.493Z" fill="#0B1F3B"/>
<path d="M585.333 157.321V96.2867H566.488V84.568H617.263V96.2867H598.71V157.321H585.333Z" fill="#0B1F3B"/>
<path d="M626.201 157.321V84.568H650.027C657.578 84.568 664.12 86.0979 669.653 89.1578C675.252 92.1526 679.581 96.3843 682.64 101.853C685.7 107.322 687.229 113.669 687.229 120.896C687.229 128.057 685.7 134.405 682.64 139.939C679.581 145.407 675.252 149.672 669.653 152.732C664.12 155.792 657.578 157.321 650.027 157.321H626.201ZM637.723 147.068H650.222C655.365 147.068 659.824 145.993 663.599 143.845C667.44 141.697 670.402 138.669 672.485 134.763C674.568 130.857 675.61 126.234 675.61 120.896C675.61 115.557 674.536 110.968 672.387 107.126C670.304 103.22 667.375 100.193 663.599 98.0445C659.824 95.8961 655.365 94.8218 650.222 94.8218H637.723V147.068Z" fill="#4884C7"/>
<path d="M733.924 158.493C728.651 158.493 723.737 157.549 719.18 155.661C714.688 153.773 710.717 151.137 707.267 147.751C703.882 144.366 701.213 140.395 699.26 135.837C697.372 131.28 696.429 126.3 696.429 120.896C696.429 115.492 697.372 110.512 699.26 105.955C701.213 101.332 703.882 97.3609 707.267 94.0406C710.652 90.6552 714.623 88.051 719.18 86.2281C723.737 84.3401 728.651 83.3961 733.924 83.3961C739.262 83.3961 744.177 84.3401 748.668 86.2281C753.225 88.051 757.196 90.6552 760.581 94.0406C764.031 97.426 766.7 101.397 768.588 105.955C770.476 110.512 771.42 115.492 771.42 120.896C771.42 126.3 770.443 131.28 768.49 135.837C766.603 140.395 763.966 144.366 760.581 147.751C757.196 151.137 753.225 153.773 748.668 155.661C744.112 157.549 739.197 158.493 733.924 158.493ZM733.924 147.947C737.7 147.947 741.15 147.263 744.274 145.896C747.464 144.529 750.231 142.641 752.574 140.232C754.918 137.758 756.74 134.893 758.042 131.638C759.344 128.318 759.995 124.737 759.995 120.896C759.995 117.055 759.344 113.507 758.042 110.251C756.74 106.996 754.918 104.132 752.574 101.658C750.231 99.1838 747.464 97.2632 744.274 95.8961C741.15 94.5289 737.7 93.8453 733.924 93.8453C730.149 93.8453 726.666 94.5289 723.476 95.8961C720.352 97.2632 717.617 99.1838 715.274 101.658C712.931 104.132 711.108 106.996 709.806 110.251C708.569 113.507 707.951 117.055 707.951 120.896C707.951 124.737 708.569 128.318 709.806 131.638C711.108 134.893 712.931 137.758 715.274 140.232C717.617 142.641 720.384 144.529 723.574 145.896C726.763 147.263 730.214 147.947 733.924 147.947Z" fill="#4884C7"/>
<path d="M784.302 157.321V84.568H795.043L822.383 122.458H817.013L843.865 84.568H854.606V157.321H843.182V98.1421L847.478 99.314L820.04 136.814H818.868L792.016 99.314L795.824 98.1421V157.321H784.302Z" fill="#4884C7"/>
<path d="M50.1023 171.06H257.674V180.53H50.1023V171.06Z" fill="#0B1F3B"/>
<path d="M0 180.53H875V190H0V180.53Z" fill="#A7C7E7"/>
</svg>
